<?xml version="1.0" standalone="no"?><svg xmlns:xlink="http://www.w3.org/1999/xlink" xmlns="http://www.w3.org/2000/svg" viewBox="0 0 1000 1000" preserveAspectRatio="xMaxYMax slice"><g transform="scale(3.3333333333333335)"><rect x="0" y="0" width="300" height="300" fill="#383838"/><rect x="0" y="0" width="60" height="60" fill="#383838"/><rect x="0" y="0" width="30" height="30" fill="#252525"/><polygon points="0,0 30,0 30,30" fill="#070707"/><rect x="30" y="0" width="30" height="30" fill="#1a1a1a"/><polygon points="60,0 60,30 30,30" fill="#131313"/><rect x="0" y="30" width="30" height="30" fill="#212121"/><polygon points="0,30 30,60 0,60" fill="#030303"/><rect x="30" y="30" width="30" height="30" fill="#010101"/><polygon points="30,30 60,30 60,60" fill="#191919"/><rect x="60" y="0" width="60" height="60" fill="#383838"/><rect x="60" y="0" width="30" height="30" fill="#292929"/><polygon points="60,0 90,30 60,30" fill="#0c0c0c"/><rect x="90" y="0" width="30" height="30" fill="#2d2d2d"/><polygon points="120,0 120,30 90,30" fill="#212121"/><rect x="60" y="30" width="30" height="30" fill="#0f0f0f"/><polygon points="60,30 90,60 60,60" fill="#090909"/><rect x="90" y="30" width="30" height="30" fill="#2e2e2e"/><polygon points="90,30 120,60 90,60" fill="#171717"/><rect x="120" y="0" width="60" height="60" fill="#383838"/><rect x="120" y="0" width="30" height="30" fill="#2f2f2f"/><polygon points="120,0 150,0 120,30" fill="#0b0b0b"/><rect x="150" y="0" width="30" height="30" fill="#292929"/><polygon points="150,0 180,0 150,30" fill="#242424"/><rect x="120" y="30" width="30" height="30" fill="#090909"/><polygon points="120,30 150,60 120,60" fill="#040404"/><rect x="150" y="30" width="30" height="30" fill="#0b0b0b"/><polygon points="150,30 180,30 180,60" fill="#1f1f1f"/><rect x="180" y="0" width="60" height="60" fill="#383838"/><rect x="180" y="0" width="30" height="30" fill="#101010"/><polygon points="180,0 210,30 180,30" fill="#0e0e0e"/><rect x="210" y="0" width="30" height="30" fill="#0e0e0e"/><polygon points="210,0 240,0 210,30" fill="#212121"/><rect x="180" y="30" width="30" height="30" fill="#222222"/><polygon points="180,30 210,30 180,60" fill="#0d0d0d"/><rect x="210" y="30" width="30" height="30" fill="#1d1d1d"/><polygon points="210,30 240,30 210,60" fill="#121212"/><rect x="240" y="0" width="60" height="60" fill="#383838"/><rect x="240" y="0" width="30" height="30" fill="#1e1e1e"/><polygon points="240,0 270,30 240,30" fill="#040404"/><rect x="270" y="0" width="30" height="30" fill="#020202"/><polygon points="270,0 300,30 270,30" fill="#050505"/><rect x="240" y="30" width="30" height="30" fill="#2a2a2a"/><polygon points="240,30 270,30 240,60" fill="#151515"/><rect x="270" y="30" width="30" height="30" fill="#2f2f2f"/><polygon points="300,30 300,60 270,60" fill="#282828"/><rect x="0" y="60" width="60" height="60" fill="#383838"/><rect x="0" y="60" width="30" height="30" fill="#191919"/><polygon points="0,60 30,90 0,90" fill="#373737"/><rect x="30" y="60" width="30" height="30" fill="#1a1a1a"/><polygon points="60,60 60,90 30,90" fill="#060606"/><rect x="0" y="90" width="30" height="30" fill="#050505"/><polygon points="0,90 30,120 0,120" fill="#2d2d2d"/><rect x="30" y="90" width="30" height="30" fill="#080808"/><polygon points="30,90 60,120 30,120" fill="#1f1f1f"/><rect x="60" y="60" width="60" height="60" fill="#383838"/><rect x="60" y="60" width="30" height="30" fill="#1e1e1e"/><polygon points="60,60 90,90 60,90" fill="#1c1c1c"/><rect x="90" y="60" width="30" height="30" fill="#101010"/><polygon points="120,60 120,90 90,90" fill="#010101"/><rect x="60" y="90" width="30" height="30" fill="#030303"/><polygon points="60,90 90,90 60,120" fill="#282828"/><rect x="90" y="90" width="30" height="30" fill="#1d1d1d"/><polygon points="90,90 120,120 90,120" fill="#050505"/><rect x="120" y="60" width="60" height="60" fill="#383838"/><rect x="120" y="60" width="30" height="30" fill="#0e0e0e"/><polygon points="120,60 150,90 120,90" fill="#141414"/><rect x="150" y="60" width="30" height="30" fill="#050505"/><polygon points="150,60 180,60 150,90" fill="#131313"/><rect x="120" y="90" width="30" height="30" fill="#1d1d1d"/><polygon points="120,90 150,90 150,120" fill="#121212"/><rect x="150" y="90" width="30" height="30" fill="#323232"/><polygon points="180,90 180,120 150,120" fill="#292929"/><rect x="180" y="60" width="60" height="60" fill="#383838"/><rect x="180" y="60" width="30" height="30" fill="#373737"/><polygon points="210,60 210,90 180,90" fill="#292929"/><rect x="210" y="60" width="30" height="30" fill="#232323"/><polygon points="210,60 240,60 210,90" fill="#111111"/><rect x="180" y="90" width="30" height="30" fill="#060606"/><polygon points="180,90 210,120 180,120" fill="#151515"/><rect x="210" y="90" width="30" height="30" fill="#282828"/><polygon points="210,90 240,90 240,120" fill="#020202"/><rect x="240" y="60" width="60" height="60" fill="#383838"/><rect x="240" y="60" width="30" height="30" fill="#000000"/><polygon points="240,60 270,90 240,90" fill="#090909"/><rect x="270" y="60" width="30" height="30" fill="#1f1f1f"/><polygon points="300,60 300,90 270,90" fill="#090909"/><rect x="240" y="90" width="30" height="30" fill="#1e1e1e"/><polygon points="240,90 270,90 270,120" fill="#171717"/><rect x="270" y="90" width="30" height="30" fill="#010101"/><polygon points="270,90 300,90 300,120" fill="#070707"/><rect x="0" y="120" width="60" height="60" fill="#383838"/><rect x="0" y="120" width="30" height="30" fill="#020202"/><polygon points="0,120 30,120 30,150" fill="#2f2f2f"/><rect x="30" y="120" width="30" height="30" fill="#1f1f1f"/><polygon points="30,120 60,120 60,150" fill="#2a2a2a"/><rect x="0" y="150" width="30" height="30" fill="#343434"/><polygon points="0,150 30,180 0,180" fill="#131313"/><rect x="30" y="150" width="30" height="30" fill="#313131"/><polygon points="30,150 60,180 30,180" fill="#363636"/><rect x="60" y="120" width="60" height="60" fill="#383838"/><rect x="60" y="120" width="30" height="30" fill="#292929"/><polygon points="90,120 90,150 60,150" fill="#222222"/><rect x="90" y="120" width="30" height="30" fill="#0f0f0f"/><polygon points="120,120 120,150 90,150" fill="#232323"/><rect x="60" y="150" width="30" height="30" fill="#141414"/><polygon points="60,150 90,150 90,180" fill="#1b1b1b"/><rect x="90" y="150" width="30" height="30" fill="#303030"/><polygon points="120,150 120,180 90,180" fill="#232323"/><rect x="120" y="120" width="60" height="60" fill="#383838"/><rect x="120" y="120" width="30" height="30" fill="#0f0f0f"/><polygon points="120,120 150,150 120,150" fill="#242424"/><rect x="150" y="120" width="30" height="30" fill="#0a0a0a"/><polygon points="150,120 180,120 150,150" fill="#292929"/><rect x="120" y="150" width="30" height="30" fill="#262626"/><polygon points="120,150 150,180 120,180" fill="#232323"/><rect x="150" y="150" width="30" height="30" fill="#050505"/><polygon points="180,150 180,180 150,180" fill="#0c0c0c"/><rect x="180" y="120" width="60" height="60" fill="#383838"/><rect x="180" y="120" width="30" height="30" fill="#0f0f0f"/><polygon points="180,120 210,120 180,150" fill="#272727"/><rect x="210" y="120" width="30" height="30" fill="#0b0b0b"/><polygon points="240,120 240,150 210,150" fill="#151515"/><rect x="180" y="150" width="30" height="30" fill="#080808"/><polygon points="210,150 210,180 180,180" fill="#0b0b0b"/><rect x="210" y="150" width="30" height="30" fill="#0f0f0f"/><polygon points="210,150 240,180 210,180" fill="#282828"/><rect x="240" y="120" width="60" height="60" fill="#383838"/><rect x="240" y="120" width="30" height="30" fill="#1b1b1b"/><polygon points="270,120 270,150 240,150" fill="#242424"/><rect x="270" y="120" width="30" height="30" fill="#121212"/><polygon points="270,120 300,120 300,150" fill="#222222"/><rect x="240" y="150" width="30" height="30" fill="#272727"/><polygon points="240,150 270,180 240,180" fill="#2e2e2e"/><rect x="270" y="150" width="30" height="30" fill="#0f0f0f"/><polygon points="270,150 300,180 270,180" fill="#1f1f1f"/><rect x="0" y="180" width="60" height="60" fill="#383838"/><rect x="0" y="180" width="30" height="30" fill="#111111"/><polygon points="0,180 30,180 0,210" fill="#0f0f0f"/><rect x="30" y="180" width="30" height="30" fill="#232323"/><polygon points="60,180 60,210 30,210" fill="#1d1d1d"/><rect x="0" y="210" width="30" height="30" fill="#0f0f0f"/><polygon points="0,210 30,210 30,240" fill="#1e1e1e"/><rect x="30" y="210" width="30" height="30" fill="#050505"/><polygon points="60,210 60,240 30,240" fill="#0f0f0f"/><rect x="60" y="180" width="60" height="60" fill="#383838"/><rect x="60" y="180" width="30" height="30" fill="#030303"/><polygon points="90,180 90,210 60,210" fill="#050505"/><rect x="90" y="180" width="30" height="30" fill="#1c1c1c"/><polygon points="90,180 120,180 90,210" fill="#242424"/><rect x="60" y="210" width="30" height="30" fill="#262626"/><polygon points="60,210 90,240 60,240" fill="#0a0a0a"/><rect x="90" y="210" width="30" height="30" fill="#222222"/><polygon points="120,210 120,240 90,240" fill="#313131"/><rect x="120" y="180" width="60" height="60" fill="#383838"/><rect x="120" y="180" width="30" height="30" fill="#101010"/><polygon points="120,180 150,180 150,210" fill="#323232"/><rect x="150" y="180" width="30" height="30" fill="#090909"/><polygon points="150,180 180,180 180,210" fill="#242424"/><rect x="120" y="210" width="30" height="30" fill="#020202"/><polygon points="120,210 150,210 150,240" fill="#000000"/><rect x="150" y="210" width="30" height="30" fill="#0b0b0b"/><polygon points="150,210 180,210 180,240" fill="#313131"/><rect x="180" y="180" width="60" height="60" fill="#383838"/><rect x="180" y="180" width="30" height="30" fill="#1b1b1b"/><polygon points="180,180 210,180 210,210" fill="#303030"/><rect x="210" y="180" width="30" height="30" fill="#080808"/><polygon points="210,180 240,180 240,210" fill="#030303"/><rect x="180" y="210" width="30" height="30" fill="#070707"/><polygon points="210,210 210,240 180,240" fill="#010101"/><rect x="210" y="210" width="30" height="30" fill="#1d1d1d"/><polygon points="210,210 240,210 210,240" fill="#1d1d1d"/><rect x="240" y="180" width="60" height="60" fill="#383838"/><rect x="240" y="180" width="30" height="30" fill="#373737"/><polygon points="240,180 270,180 270,210" fill="#171717"/><rect x="270" y="180" width="30" height="30" fill="#060606"/><polygon points="270,180 300,180 270,210" fill="#272727"/><rect x="240" y="210" width="30" height="30" fill="#1d1d1d"/><polygon points="240,210 270,210 270,240" fill="#101010"/><rect x="270" y="210" width="30" height="30" fill="#373737"/><polygon points="270,210 300,210 300,240" fill="#202020"/><rect x="0" y="240" width="60" height="60" fill="#383838"/><rect x="0" y="240" width="30" height="30" fill="#060606"/><polygon points="0,240 30,240 30,270" fill="#272727"/><rect x="30" y="240" width="30" height="30" fill="#1f1f1f"/><polygon points="30,240 60,270 30,270" fill="#363636"/><rect x="0" y="270" width="30" height="30" fill="#323232"/><polygon points="30,270 30,300 0,300" fill="#151515"/><rect x="30" y="270" width="30" height="30" fill="#131313"/><polygon points="30,270 60,270 60,300" fill="#202020"/><rect x="60" y="240" width="60" height="60" fill="#383838"/><rect x="60" y="240" width="30" height="30" fill="#222222"/><polygon points="60,240 90,240 90,270" fill="#1d1d1d"/><rect x="90" y="240" width="30" height="30" fill="#1a1a1a"/><polygon points="90,240 120,240 90,270" fill="#303030"/><rect x="60" y="270" width="30" height="30" fill="#121212"/><polygon points="60,270 90,300 60,300" fill="#060606"/><rect x="90" y="270" width="30" height="30" fill="#0d0d0d"/><polygon points="90,270 120,300 90,300" fill="#0a0a0a"/><rect x="120" y="240" width="60" height="60" fill="#383838"/><rect x="120" y="240" width="30" height="30" fill="#272727"/><polygon points="120,240 150,240 150,270" fill="#1f1f1f"/><rect x="150" y="240" width="30" height="30" fill="#2a2a2a"/><polygon points="150,240 180,240 180,270" fill="#020202"/><rect x="120" y="270" width="30" height="30" fill="#0b0b0b"/><polygon points="120,270 150,300 120,300" fill="#2c2c2c"/><rect x="150" y="270" width="30" height="30" fill="#030303"/><polygon points="150,270 180,270 150,300" fill="#0a0a0a"/><rect x="180" y="240" width="60" height="60" fill="#383838"/><rect x="180" y="240" width="30" height="30" fill="#171717"/><polygon points="180,240 210,240 210,270" fill="#333333"/><rect x="210" y="240" width="30" height="30" fill="#111111"/><polygon points="210,240 240,270 210,270" fill="#262626"/><rect x="180" y="270" width="30" height="30" fill="#212121"/><polygon points="180,270 210,270 210,300" fill="#2b2b2b"/><rect x="210" y="270" width="30" height="30" fill="#202020"/><polygon points="210,270 240,300 210,300" fill="#151515"/><rect x="240" y="240" width="60" height="60" fill="#383838"/><rect x="240" y="240" width="30" height="30" fill="#2e2e2e"/><polygon points="240,240 270,240 240,270" fill="#0e0e0e"/><rect x="270" y="240" width="30" height="30" fill="#202020"/><polygon points="270,240 300,240 270,270" fill="#000000"/><rect x="240" y="270" width="30" height="30" fill="#212121"/><polygon points="240,270 270,270 240,300" fill="#222222"/><rect x="270" y="270" width="30" height="30" fill="#232323"/><polygon points="270,270 300,270 300,300" fill="#030303"/></g></svg>